<?xml version="1.0" encoding="UTF-8"?>
<svg id="Layer_1" data-name="Layer 1" xmlns="http://www.w3.org/2000/svg" xmlns:xlink="http://www.w3.org/1999/xlink" viewBox="0 0 322.25 322.25">
  <defs>
    <style>
      .cls-1, .cls-2 {
        fill: #fff;
      }

      .cls-3 {
        fill: #f15a2c;
      }

      .cls-2, .cls-4, .cls-5, .cls-6, .cls-7 {
        fill-rule: evenodd;
      }

      .cls-8 {
        stroke: #f15d27;
        stroke-width: .85px;
      }

      .cls-8, .cls-9, .cls-10, .cls-11, .cls-12, .cls-13 {
        fill: none;
        stroke-miterlimit: 10;
      }

      .cls-9 {
        stroke: #f15f26;
        stroke-width: .7px;
      }

      .cls-4 {
        isolation: isolate;
        opacity: 1;
      }

      .cls-4, .cls-6 {
        fill: #b21f24;
      }

      .cls-5 {
        fill: #010101;
      }

      .cls-10 {
        stroke: #f15a29;
      }

      .cls-14 {
        fill: #4070b7;
      }

      .cls-15 {
        fill: #249346;
      }

      .cls-16 {
        fill: #fac11b;
      }

      .cls-17 {
        fill: #e43d2f;
      }

      .cls-11 {
        stroke: #f26522;
        stroke-width: .25px;
      }

      .cls-7 {
        fill: #b41f24;
      }

      .cls-12 {
        stroke: #f26124;
        stroke-width: .55px;
      }

      .cls-13 {
        stroke: #f26323;
        stroke-width: .4px;
      }

      .cls-18 {
        fill: url(#linear-gradient);
      }

      .cls-19 {
        fill: #f15927;
      }
    </style>
    <linearGradient id="linear-gradient" x1="138.23" y1="161.12" x2="184.02" y2="161.12" gradientUnits="userSpaceOnUse">
      <stop offset="0" stop-color="#000"/>
      <stop offset="1" stop-color="#000"/>
    </linearGradient>
  </defs>
  <circle id="background" class="cls-18" cx="161.13" cy="161.12" r="22.89"/>
  <g id="orbit">
    <circle class="cls-10" cx="161.13" cy="161.12" r="22.89"/>
    <circle class="cls-8" cx="161.13" cy="161.12" r="50.51"/>
    <circle class="cls-9" cx="161.13" cy="161.12" r="78.13"/>
    <path class="cls-12" d="M266.89,161.12c0,21.79-6.59,42.04-17.89,58.87-2.88-2.18-6.46-3.47-10.34-3.47-9.47,0-17.15,7.67-17.15,17.14,0,4.29,1.58,8.21,4.18,11.22-17.86,13.8-40.26,22-64.56,22s-47.76-8.6-65.82-22.98c3.43-3.13,5.58-7.64,5.58-12.66,0-9.47-7.67-17.15-17.14-17.15-4.42,0-8.44,1.67-11.48,4.4-10.69-16.53-16.9-36.22-16.9-57.37s5.76-39.4,15.75-55.54c2.92,2.31,6.6,3.68,10.6,3.68,9.47,0,17.15-7.68,17.15-17.15,0-4.86-2.03-9.25-5.28-12.37,18.32-15.22,41.86-24.38,67.54-24.38,24.3,0,46.7,8.2,64.56,22-2.6,3.01-4.18,6.93-4.18,11.22,0,9.47,7.68,17.14,17.15,17.14,3.88,0,7.46-1.29,10.34-3.47,11.3,16.83,17.89,37.08,17.89,58.87Z"/>
    <path class="cls-13" d="M161.12,27.74C87.47,27.74,27.74,87.46,27.74,161.12s59.72,133.38,133.38,133.38,133.38-59.72,133.38-133.38S234.78,27.74,161.12,27.74Zm77.53,43.69c9.47,0,17.14,7.68,17.14,17.15,0,5.59-2.67,10.55-6.8,13.67-2.88,2.18-6.46,3.47-10.34,3.47-9.47,0-17.15-7.67-17.15-17.14,0-4.29,1.58-8.21,4.18-11.22,3.14-3.63,7.79-5.93,12.97-5.93Zm-156.94,3.54c4.6,0,8.79,1.82,11.87,4.77,3.25,3.12,5.28,7.51,5.28,12.37,0,9.47-7.68,17.15-17.15,17.15-4,0-7.68-1.37-10.6-3.68-3.98-3.14-6.54-8.01-6.54-13.47,0-9.47,7.68-17.14,17.14-17.14Zm2.03,173.41c-9.47,0-17.15-7.67-17.15-17.14,0-5.05,2.19-9.6,5.67-12.75,3.04-2.73,7.06-4.4,11.48-4.4,9.47,0,17.14,7.68,17.14,17.15,0,5.02-2.15,9.53-5.58,12.66-3.05,2.78-7.1,4.48-11.56,4.48Zm154.91,2.43c-5.18,0-9.83-2.3-12.97-5.93-2.6-3.01-4.18-6.93-4.18-11.22,0-9.47,7.68-17.14,17.15-17.14,3.88,0,7.46,1.29,10.34,3.47,4.13,3.12,6.8,8.08,6.8,13.67,0,9.47-7.67,17.15-17.14,17.15Z"/>
    <path class="cls-11" d="M161.12,.12C72.21,.12,.12,72.2,.12,161.12s72.08,161,161,161,161-72.08,161-161S250.04,.12,161.12,.12ZM83.74,248.39c-9.47,0-17.15-7.67-17.15-17.14,0-5.05,2.19-9.6,5.67-12.75,3.04-2.73,7.06-4.4,11.48-4.4,9.47,0,17.14,7.68,17.14,17.15,0,5.02-2.15,9.53-5.58,12.66-3.05,2.78-7.1,4.48-11.56,4.48ZM238.66,71.43c9.47,0,17.14,7.68,17.14,17.15,0,5.59-2.67,10.55-6.8,13.67-2.88,2.18-6.46,3.47-10.34,3.47-9.47,0-17.15-7.67-17.15-17.14,0-4.29,1.58-8.21,4.18-11.22,3.14-3.63,7.79-5.93,12.97-5.93Zm-156.94,3.54c4.6,0,8.79,1.82,11.87,4.77,3.25,3.12,5.28,7.51,5.28,12.37,0,9.47-7.68,17.15-17.15,17.15-4,0-7.68-1.37-10.6-3.68-3.98-3.14-6.54-8.01-6.54-13.47,0-9.47,7.68-17.14,17.14-17.14ZM238.66,250.82c-5.18,0-9.83-2.3-12.97-5.93-2.6-3.01-4.18-6.93-4.18-11.22,0-9.47,7.68-17.14,17.15-17.14,3.88,0,7.46,1.29,10.34,3.47,4.13,3.12,6.8,8.08,6.8,13.67,0,9.47-7.67,17.15-17.14,17.15Z"/>
  </g>
  <g id="fidelswift">
    <path class="cls-19" d="M160.72,158.01c-3.22,0-5.84,2.62-5.84,5.84s2.62,5.84,5.84,5.84,5.84-2.62,5.84-5.84-2.62-5.84-5.84-5.84Zm0,8.8c-1.63,0-2.96-1.33-2.96-2.96s1.33-2.96,2.96-2.96,2.96,1.33,2.96,2.96-1.33,2.96-2.96,2.96Z"/>
    <path class="cls-19" d="M160.79,175.12c-1.64,0-3.29-.38-4.83-1.13-2.6-1.26-4.64-3.49-5.6-6.13-1.69-4.63,.03-9.97,4.19-12.98,.64-.47,1.54-.32,2.01,.32,.47,.64,.32,1.54-.32,2.01-3.12,2.26-4.43,6.24-3.18,9.66,1.19,3.27,4.41,5.35,7.75,5.35,.89,0,1.8-.15,2.67-.47,4.22-1.53,6.41-6.2,4.88-10.42-.06-.16-.12-.32-.18-.46-.32-.73,.02-1.58,.75-1.89,.73-.32,1.58,.02,1.89,.75,.09,.2,.17,.41,.25,.63,2.07,5.71-.9,12.04-6.61,14.11-1.2,.43-2.44,.65-3.68,.65Z"/>
    <path class="cls-19" d="M158.75,153.92c-.42,0-.83-.18-1.11-.53-.5-.61-.41-1.52,.2-2.03,2.19-1.8,3.21-5.56,3.23-6.51,.02-.79,.68-1.42,1.47-1.4,.79,.02,1.42,.68,1.4,1.47-.04,1.78-1.38,6.29-4.28,8.67-.27,.22-.59,.33-.91,.33Z"/>
  </g>
  <g id="chrome">
    <path class="cls-1" d="M238.65,240.21c3.61,0,6.54-2.93,6.54-6.54s-2.93-6.54-6.54-6.54-6.54,2.93-6.54,6.54,2.93,6.54,6.54,6.54Z"/>
    <path class="cls-15" d="M230.19,230.46c-.49-.84-1.06-1.73-1.72-2.66-1.03,1.79-1.57,3.81-1.57,5.87s.54,4.09,1.57,5.87c1.03,1.79,2.51,3.27,4.3,4.3,1.79,1.03,3.81,1.57,5.88,1.57,1.08-1.52,1.82-2.61,2.2-3.28,.74-1.29,1.7-3.13,2.88-5.53h0c-.52,.89-1.26,1.63-2.15,2.15-1.82,1.05-4.06,1.05-5.88,0-.89-.52-1.63-1.26-2.15-2.15-1.6-2.99-2.72-5.04-3.37-6.15Z"/>
    <path class="cls-16" d="M238.65,245.42c2.06,0,4.09-.54,5.88-1.57,1.79-1.03,3.27-2.51,4.3-4.3,1.03-1.79,1.57-3.81,1.57-5.88,0-2.06-.54-4.09-1.58-5.87-2.23-.22-3.87-.33-4.93-.33-1.2,0-2.95,.11-5.25,.33h0c1.03,0,2.04,.27,2.94,.79,.89,.52,1.64,1.26,2.15,2.15,1.05,1.82,1.05,4.06,0,5.88l-5.09,8.81Z"/>
    <path class="cls-14" d="M238.65,238.32c2.57,0,4.65-2.08,4.65-4.65s-2.08-4.65-4.65-4.65-4.65,2.08-4.65,4.65,2.08,4.65,4.65,4.65Z"/>
    <path class="cls-17" d="M238.65,227.8h10.17c-1.03-1.79-2.51-3.27-4.3-4.3-1.79-1.03-3.81-1.57-5.87-1.57-2.06,0-4.09,.54-5.87,1.57-1.79,1.03-3.27,2.52-4.3,4.3l5.09,8.81h0c-1.05-1.82-1.05-4.06,0-5.88,.52-.89,1.26-1.64,2.15-2.15,.89-.52,1.91-.79,2.94-.79h0Z"/>
  </g>
  <path id="notion" class="cls-5" d="M77.01,224.29c.67,.54,.92,.5,2.17,.42l11.79-.71c.25,0,.04-.25-.04-.29l-1.96-1.42c-.51-.43-1.18-.63-1.84-.54l-11.41,.84c-.42,.04-.5,.25-.33,.42l1.63,1.29h0Zm.71,2.74v12.4c0,.67,.33,.92,1.08,.87l12.96-.75c.75-.04,.84-.5,.84-1.04v-12.32c0-.54-.21-.84-.67-.79l-13.54,.79c-.5,.04-.67,.29-.67,.84h0Zm12.79,.67c.08,.37,0,.75-.38,.79l-.62,.12v9.16c-.54,.29-1.04,.46-1.46,.46-.67,0-.84-.21-1.34-.84l-4.09-6.41v6.2l1.29,.29s0,.75-1.04,.75l-2.87,.17c-.08-.17,0-.58,.29-.67l.75-.21v-8.2l-1.04-.08c-.1-.42,.16-.84,.58-.94,.04-.01,.09-.02,.13-.02l3.08-.21,4.25,6.5v-5.75l-1.08-.12c-.07-.38,.18-.75,.56-.82,.04,0,.07-.01,.11-.01l2.88-.17h0Zm-15.75-6.24l11.87-.87c1.47-.13,1.84-.04,2.76,.62l3.79,2.67c.63,.46,.84,.58,.84,1.08v14.61c0,.91-.33,1.46-1.5,1.54l-13.79,.84c-.88,.04-1.29-.08-1.75-.67l-2.79-3.63c-.5-.67-.71-1.17-.71-1.75v-12.99c0-.75,.33-1.38,1.29-1.46Z"/>
  <g id="acrobar">
    <path class="cls-4" d="M74.57,81.44c5,0,10,0,15,.01,1.26,.17,2.23,.79,2.91,1.86,.28,.49,.46,1.01,.52,1.57,.02,4.82,.02,9.64,0,14.45-.23,1.53-1.05,2.6-2.47,3.2-.43,.16-.88,.24-1.35,.25-4.74,.02-9.48,.02-14.23,0-1.63-.09-2.8-.85-3.53-2.3-.05-.17-.11-.35-.17-.54-.08-.31-.13-.63-.14-.96-.02-4.59-.02-9.18,0-13.77,.09-1.57,.83-2.71,2.22-3.43,.4-.18,.81-.29,1.23-.35Z"/>
    <path class="cls-2" d="M81.3,85.45c.85-.05,1.39,.34,1.61,1.16,.12,.56,.13,1.12,.05,1.69-.12,.82-.31,1.62-.58,2.41,.5,.89,1.12,1.71,1.85,2.44,.48-.05,.96-.1,1.44-.14,.57-.03,1.14,0,1.71,.07,.45,.07,.86,.24,1.23,.5,.4,.37,.5,.82,.31,1.33-.12,.26-.31,.44-.58,.54-.16,.06-.31,.09-.48,.11-.75,.06-1.46-.07-2.14-.39-.63-.29-1.21-.66-1.72-1.13-1.16,.22-2.29,.52-3.41,.9-.47,.85-1.01,1.64-1.63,2.38-.28,.3-.58,.58-.9,.83-.43,.33-.92,.49-1.46,.48-.53-.05-.89-.31-1.11-.79-.09-.34-.05-.66,.14-.96,.15-.22,.32-.42,.51-.6,.45-.37,.94-.7,1.46-.98,.53-.26,1.07-.52,1.61-.76,.75-1.42,1.38-2.89,1.88-4.42-.39-.84-.63-1.72-.72-2.64-.04-.43,0-.86,.14-1.28,.15-.38,.42-.63,.81-.75Z"/>
    <path class="cls-6" d="M81.39,86.14c.29-.02,.46,.11,.51,.41,.02,.12,.03,.25,.03,.38-.06,.81-.22,1.61-.47,2.38-.26-.68-.41-1.38-.44-2.11,0-.31,.05-.6,.17-.88,.06-.07,.13-.13,.19-.18Z"/>
    <path class="cls-6" d="M82.01,91.77s.04,0,.06,.02c.35,.55,.74,1.06,1.17,1.55-.71,.17-1.4,.34-2.1,.52,.33-.68,.62-1.38,.87-2.1Z"/>
    <path class="cls-6" d="M85.56,93.68c.53-.01,1.05,0,1.57,.06,.27,.03,.46,.16,.58,.4,.05,.39-.13,.61-.51,.67-.36,.02-.7-.04-1.03-.18-.52-.2-.99-.48-1.41-.83,.04-.02,.07-.03,.11-.03,.23-.03,.46-.05,.68-.08Z"/>
    <path class="cls-7" d="M78.72,95.51c.08,0,.09,.01,.03,.07-.43,.7-.95,1.34-1.54,1.93-.19,.17-.4,.29-.64,.36-.27,.05-.43-.06-.48-.33,.07-.27,.2-.49,.41-.67,.43-.37,.9-.69,1.41-.96,.27-.13,.53-.27,.8-.4Z"/>
  </g>
  <path id="office" class="cls-3" d="M240.69,77.29l-12.7,4.94v13.41l4.23-1.41v-11.29l8.47-1.41v15.59l-12.7-1.47,12.7,4.23,7.06-2.12v-18.35l-7.06-2.12Z"/>
</svg>